<?xml version="1.0" standalone="no"?>
<!DOCTYPE svg PUBLIC "-//W3C//DTD SVG 20010904//EN"
 "http://www.w3.org/TR/2001/REC-SVG-20010904/DTD/svg10.dtd">
<svg version="1.0" xmlns="http://www.w3.org/2000/svg"
 width="96.000000pt" height="96.000000pt" viewBox="0 0 96.000000 96.000000"
 preserveAspectRatio="xMidYMid meet">
<metadata>
Created by potrace 1.16, written by Peter Selinger 2001-2019
</metadata>
<g transform="translate(0.000000,96.000000) scale(0.100000,-0.100000)"
fill="#000000" stroke="none">
<path d="M547 748 l-65 -73 -81 -6 c-93 -6 -123 -23 -158 -86 -26 -45 -66
-193 -83 -304 -21 -132 -1 -143 189 -105 266 53 321 94 321 238 l0 62 75 71
c101 94 101 110 8 206 -59 61 -71 69 -104 69 -33 0 -43 -7 -102 -72z m51 -196
c13 -19 16 -35 11 -52 -4 -14 -7 -52 -8 -85 -1 -36 -7 -69 -16 -82 -18 -26
-101 -58 -214 -83 l-84 -19 53 54 c30 30 65 55 81 59 37 7 57 46 43 84 -20 57
-108 52 -120 -7 -4 -16 -29 -51 -59 -81 l-54 -53 19 84 c25 113 57 196 83 214
12 8 45 16 77 16 30 1 69 4 85 8 34 8 73 -13 103 -57z"/>
</g>
</svg>
